<svg xmlns="http://www.w3.org/2000/svg" xml:space="preserve" style="fill-rule:evenodd;clip-rule:evenodd;stroke-linejoin:round;stroke-miterlimit:2" viewBox="0 0 1024 1024"><path d="M550 300.037v-.007h-70c-16.569 0-30 13.432-30 30v487.598a9.998 9.998 0 0 1-5.112 8.723l-150.534 84.348a9.99 9.99 0 0 1-5.869 1.229C273.579 910.497 262 897.403 262 882.024v-740c0-16.569 13.431-30 30-30h440c16.569 0 30 13.431 30 30v128.013a30 30 0 0 1-30 30H550Zm182 127.208a30 30 0 0 1 30 30v173.842a30 30 0 0 1-15.335 26.171L564.888 759.112A9.997 9.997 0 0 1 550 750.388V457.245c0-16.568 13.431-30 30-30h152Z" style="fill:#6db964"/><path d="M549.984 300.037H550v127.209h-.016z" style="fill:#6db964"/></svg>