<svg xmlns="http://www.w3.org/2000/svg" xml:space="preserve" style="fill-rule:evenodd;clip-rule:evenodd;stroke-linejoin:round;stroke-miterlimit:2" viewBox="0 0 4096 1024"><path d="M548 300.037v-.007h-70c-16.569 0-30 13.432-30 30v487.598a9.998 9.998 0 0 1-5.112 8.723l-150.534 84.348a9.99 9.99 0 0 1-5.869 1.229C271.579 910.497 260 897.403 260 882.024v-740c0-16.569 13.431-30 30-30h440c16.569 0 30 13.431 30 30v128.013a30 30 0 0 1-30 30H548Zm182 127.208a30 30 0 0 1 30 30v173.842a30 30 0 0 1-15.335 26.171L562.888 759.112A9.997 9.997 0 0 1 548 750.388V457.245c0-16.568 13.431-30 30-30h152Z" style="fill:#6db964"/><path d="M1139.5 356.75v56.5H994v89.5h111.5v55.5H994v147.5h-70v-349h215.5ZM1224.5 395.75c-12.33 0-22.58-3.917-30.75-11.75-8.17-7.833-12.25-17.583-12.25-29.25 0-11.667 4.08-21.417 12.25-29.25 8.17-7.833 18.42-11.75 30.75-11.75 12.33 0 22.58 3.917 30.75 11.75 8.17 7.833 12.25 17.583 12.25 29.25 0 11.667-4.08 21.417-12.25 29.25-8.17 7.833-18.42 11.75-30.75 11.75Zm34.5 33v277h-70v-277h70ZM1481.5 424.75c33 0 59.67 10.417 80 31.25s30.5 49.917 30.5 87.25v162.5h-70v-153c0-22-5.5-38.917-16.5-50.75-11-11.833-26-17.75-45-17.75-19.33 0-34.58 5.917-45.75 17.75-11.17 11.833-16.75 28.75-16.75 50.75v153h-70v-277h70v34.5c9.33-12 21.25-21.417 35.75-28.25 14.5-6.833 30.42-10.25 47.75-10.25ZM1659.5 497.75h212v59h-212zM2187.5 356.75v56.5h-93v292.5h-70v-292.5h-93v-56.5h256ZM2308.5 471.75c9-14.667 20.75-26.167 35.25-34.5 14.5-8.333 31.08-12.5 49.75-12.5v73.5H2375c-22 0-38.58 5.167-49.75 15.5-11.17 10.333-16.75 28.333-16.75 54v138h-70v-277h70v43ZM2422.5 566.25c0-28 5.58-52.833 16.75-74.5s26.33-38.333 45.5-50c19.17-11.667 40.58-17.5 64.25-17.5 20.67 0 38.75 4.167 54.25 12.5s27.92 18.833 37.25 31.5v-39.5h70.5v277h-70.5v-40.5c-9 13-21.42 23.75-37.25 32.25-15.83 8.5-34.08 12.75-54.75 12.75-23.33 0-44.58-6-63.75-18s-34.33-28.917-45.5-50.75c-11.17-21.833-16.75-46.917-16.75-75.25Zm218 1c0-17-3.33-31.583-10-43.75-6.67-12.167-15.67-21.5-27-28s-23.5-9.75-36.5-9.75-25 3.167-36 9.5-19.92 15.583-26.75 27.75c-6.83 12.167-10.25 26.583-10.25 43.25s3.42 31.25 10.25 43.75 15.83 22.083 27 28.75c11.17 6.667 23.08 10 35.75 10 13 0 25.17-3.25 36.5-9.75 11.33-6.5 20.33-15.833 27-28 6.67-12.167 10-26.75 10-43.75ZM2761.5 567.25c0-28.667 5.83-53.75 17.5-75.25s27.83-38.167 48.5-50c20.67-11.833 44.33-17.75 71-17.75 34.33 0 62.75 8.583 85.25 25.75s37.58 41.25 45.25 72.25h-75.5c-4-12-10.75-21.417-20.25-28.25-9.5-6.833-21.25-10.25-35.25-10.25-20 0-35.83 7.25-47.5 21.75-11.67 14.5-17.5 35.083-17.5 61.75 0 26.333 5.83 46.75 17.5 61.25s27.5 21.75 47.5 21.75c28.33 0 46.83-12.667 55.5-38h75.5c-7.67 30-22.83 53.833-45.5 71.5s-51 26.5-85 26.5c-26.67 0-50.33-5.917-71-17.75s-36.83-28.5-48.5-50c-11.67-21.5-17.5-46.583-17.5-75.25ZM3244.5 705.75l-94-118v118h-70v-370h70v210.5l93-117.5h91l-122 139 123 138h-91ZM3630 561.25c0 10-.67 19-2 27h-202.5c1.67 20 8.67 35.667 21 47 12.33 11.333 27.5 17 45.5 17 26 0 44.5-11.167 55.5-33.5h75.5c-8 26.667-23.33 48.583-46 65.75s-50.5 25.75-83.5 25.75c-26.67 0-50.58-5.917-71.75-17.75s-37.67-28.583-49.5-50.25c-11.83-21.667-17.75-46.667-17.75-75 0-28.667 5.83-53.833 17.5-75.5s28-38.333 49-50c21-11.667 45.17-17.5 72.5-17.5 26.33 0 49.92 5.667 70.75 17s37 27.417 48.5 48.25 17.25 44.75 17.25 71.75Zm-73-20c0-18-6.33-32.417-19-43.25-12.67-10.833-28.17-16.25-46.5-16.25-17.33 0-31.92 5.25-43.75 15.75-11.83 10.5-19.08 25.083-21.75 43.75h131ZM3751 471.75c9-14.667 20.75-26.167 35.25-34.5 14.5-8.333 31.08-12.5 49.75-12.5v73.5h-18.5c-22 0-38.58 5.167-49.75 15.5-11.17 10.333-16.75 28.333-16.75 54v138h-70v-277h70v43Z" style="fill-rule:nonzero"/></svg>
